<svg xmlns="http://www.w3.org/2000/svg" viewBox="0 0 506.9 181.71" width="200" height="95"><title>SEIS</title><path d="M92.7 0h.3q36.29.76 62.14 26.61t26.61 62.09v2.16q0 3.51-.22 6.92-2.27 33.15-26.39 57.33-26.61 26.61-64.25 26.61T26.61 155.1Q0 128.5 0 90.86t26.61-64.25Q53.22 0 90.86 0h1.84zM33.53 51.16a63 63 0 0 0-2.76 6.65q-.22.7-.43 1.35l-.76 2.43a74.85 74.85 0 0 0-2.87 20.93q0 30.45 21.52 52 19.7 19.67 46.77 21.4 2.6.16 5.25.16a86.26 86.26 0 0 0 9.73-.54q24.23-3 42.24-21 21.58-21.52 21.58-52t-21.58-52Q130.71 9 100.27 9t-52 21.52A75.55 75.55 0 0 0 35.15 48q-.86 1.54-1.62 3.16z" fill="#fff" fill-rule="evenodd"/><path d="M165 83.23q0-27-19.09-46.13A62.79 62.79 0 0 0 99.83 18q-27 0-46.13 19.09l-.05.05-.11.11a50.82 50.82 0 0 0-9.19 11q-1.09 1.75-2.06 3.61a70.52 70.52 0 0 0-4 9.25 21.21 21.21 0 0 0 4.06.59 46.7 46.7 0 0 1 5-9.3 29.84 29.84 0 0 1 1.81-2.4 45.44 45.44 0 0 1 7.63-7.25Q65.66 53 95.89 56q63 6.6 50.13 73.12A62.66 62.66 0 0 0 165 83.23zM64 37.15q75.53-14.81 92 49.65-22-60.03-92-49.65z" fill="#137039" fill-rule="evenodd"/><path d="M30.34 59.16q.22-.65.43-1.35a63 63 0 0 1 2.76-6.65q4.22.22 8.76.7a70.49 70.49 0 0 0-4 9.25 59.55 59.55 0 0 1-7.95-1.95zM79.28 84.1q-1.51.49-3.24.92 23.26 7.63 32.67 29.1-.11-1.3-.27-2.6a42.62 42.62 0 0 0-2.22-9.41 50.31 50.31 0 0 0-17.69-24.34Q87 81.61 79.28 84.1zm-49.7-22.5q13.68 5.95 28.93-.05a69.49 69.49 0 0 1-16.17.16 46.7 46.7 0 0 1 5-9.3 273.37 273.37 0 0 1 27.31 5.14q35.48 8.33 46 38.24 7.9 22.39-6.6 52.08-1.89 3.89-4.06 7.68a86.26 86.26 0 0 1-9.73.54q-2.65 0-5.25-.16-27.1-1.73-46.78-21.42Q26.72 113 26.72 82.53a74.85 74.85 0 0 1 2.86-20.93z" fill="red" fill-rule="evenodd"/><path d="M42.35 61.71a69.49 69.49 0 0 0 16.17-.16q-15.25 6-28.93.05l.76-2.43a59.55 59.55 0 0 0 8 1.95 21.2 21.2 0 0 0 4 .59zM79.28 84.1q7.73-2.49 9.25-6.33a50.31 50.31 0 0 1 17.68 24.34 42.62 42.62 0 0 1 2.22 9.41q.16 1.3.27 2.6Q99.29 92.64 76 85q1.77-.42 3.28-.9z" fill="#fff" fill-rule="evenodd"/><path d="M224.18 111.14q1.14.94 2.93 2.52a39.26 39.26 0 0 0 4.07 3.13 34.14 34.14 0 0 0 6.8 3.57 19.71 19.71 0 0 0 7.07 1.28 18.39 18.39 0 0 0 5.75-.77 9.7 9.7 0 0 0 3.67-2.05 7.27 7.27 0 0 0 1.92-3 11 11 0 0 0 .57-3.56 5.25 5.25 0 0 0-1.58-3.73 16.43 16.43 0 0 0-3.87-2.92 33.06 33.06 0 0 0-4.78-2.19q-2.49-.91-4.31-1.51a98.36 98.36 0 0 1-14.13-6.08 43.61 43.61 0 0 1-10.1-7.26 26.14 26.14 0 0 1-8.08-19.53 25.33 25.33 0 0 1 2.52-11.36 25 25 0 0 1 7.2-8.74 34.26 34.26 0 0 1 11.27-5.61 51 51 0 0 1 14.74-2 49.16 49.16 0 0 1 11.74 1.38 44.77 44.77 0 0 1 11.07 4.41q2.35 1.37 4.35 2.81a45.54 45.54 0 0 1 3.6 2.79 17.18 17.18 0 0 1 2.46 2.56 3.72 3.72 0 0 1 .91 2.09 3.12 3.12 0 0 1-.44 1.62 10.24 10.24 0 0 1-1.31 1.68l-10.3 11a3.3 3.3 0 0 1-2.29 1.14 2.92 2.92 0 0 1-1.72-.54 21.49 21.49 0 0 1-1.72-1.35l-.61-.54q-1.35-1.14-3-2.36a26.81 26.81 0 0 0-3.53-2.19 23.84 23.84 0 0 0-4-1.62 14.42 14.42 0 0 0-4.24-.64 22.46 22.46 0 0 0-4.17.37 11.68 11.68 0 0 0-3.43 1.18 6.53 6.53 0 0 0-2.36 2.12 6.2 6.2 0 0 0 .07 6.46 9.32 9.32 0 0 0 2.83 2.56 26.09 26.09 0 0 0 4.68 2.22q2.79 1 6.49 2.25 7.13 2.36 13.16 4.95a44.4 44.4 0 0 1 10.4 6.12 25.31 25.31 0 0 1 6.83 8.45 26.41 26.41 0 0 1 2.46 11.91 29.47 29.47 0 0 1-3 13.43 30.7 30.7 0 0 1-8.31 10.26 38.86 38.86 0 0 1-12.42 6.56 49.32 49.32 0 0 1-15.34 2.32 43.52 43.52 0 0 1-15.2-2.73 58.46 58.46 0 0 1-13.93-7.42 35.83 35.83 0 0 1-4.54-3.85q-1.85-1.89-2.93-3l-.2-.2a.37.37 0 0 0-.13-.17.52.52 0 0 1-.13-.1.37.37 0 0 0-.13-.17.52.52 0 0 1-.13-.1 4.72 4.72 0 0 1-1.55-2.7 3.83 3.83 0 0 1 1.55-2.57L219 110.54a4.37 4.37 0 0 1 2.29-1 2.5 2.5 0 0 1 1.28.4 12.63 12.63 0 0 1 1.61 1.2zm74.37-64.54a3.2 3.2 0 0 1 .77-2.26 2.81 2.81 0 0 1 2.18-.84h66.77a3 3 0 0 1 2.29.87 3.32 3.32 0 0 1 .81 2.35v16.65a3.51 3.51 0 0 1-.81 2.18 2.8 2.8 0 0 1-2.36 1h-43.61v16.73h33.65a3.54 3.54 0 0 1 2.12.61 2.32 2.32 0 0 1 .84 2v14.54a2.79 2.79 0 0 1-.74 1.82 2.67 2.67 0 0 1-2.15.87h-33.72v17.23h45.22q3 0 3 3.09v16.91a1.66 1.66 0 0 1-.54 1.21q-.27 1.88-2.76 1.88h-68a3.13 3.13 0 0 1-2.15-.71 2.76 2.76 0 0 1-.81-2.19zm89.77-.13a3.12 3.12 0 0 1 .74-2.09 2.75 2.75 0 0 1 2.22-.87h19.79a3.8 3.8 0 0 1 2.15.81 2.51 2.51 0 0 1 1.14 2.15v94q0 3-3.3 3h-19.77a2.62 2.62 0 0 1-3-3zm58.96 64.67q1.14.94 2.93 2.52a39 39 0 0 0 4.07 3.13 34.09 34.09 0 0 0 6.8 3.57 19.71 19.71 0 0 0 7.07 1.28 18.4 18.4 0 0 0 5.76-.77 9.7 9.7 0 0 0 3.67-2.05 7.28 7.28 0 0 0 1.92-3 11 11 0 0 0 .57-3.56 5.25 5.25 0 0 0-1.58-3.73 16.43 16.43 0 0 0-3.87-2.92 33.05 33.05 0 0 0-4.78-2.19q-2.49-.91-4.31-1.51a98.41 98.41 0 0 1-14.13-6.08 43.6 43.6 0 0 1-10.09-7.26 26.13 26.13 0 0 1-8.08-19.53 25.33 25.33 0 0 1 2.52-11.36 25 25 0 0 1 7.2-8.74 34.23 34.23 0 0 1 11.27-5.61 51 51 0 0 1 14.74-2 49.16 49.16 0 0 1 11.74 1.38 44.81 44.81 0 0 1 11.07 4.41q2.29 1.35 4.34 2.79t3.6 2.79a17.06 17.06 0 0 1 2.46 2.56 3.72 3.72 0 0 1 .91 2.09 3.12 3.12 0 0 1-.44 1.62 10.18 10.18 0 0 1-1.31 1.68l-10.3 11a3.3 3.3 0 0 1-2.29 1.14 2.93 2.93 0 0 1-1.72-.54 21.68 21.68 0 0 1-1.72-1.35l-.61-.54q-1.35-1.14-3-2.36a26.88 26.88 0 0 0-3.53-2.19 23.89 23.89 0 0 0-4-1.62 14.42 14.42 0 0 0-4.24-.64 22.44 22.44 0 0 0-4.17.37 11.67 11.67 0 0 0-3.43 1.18 6.51 6.51 0 0 0-2.32 2.13 6.19 6.19 0 0 0 .07 6.46 9.32 9.32 0 0 0 2.83 2.56 26.06 26.06 0 0 0 4.68 2.22q2.79 1 6.49 2.25 7.13 2.36 13.16 4.95a44.43 44.43 0 0 1 10.4 6.12 25.35 25.35 0 0 1 6.83 8.45 26.43 26.43 0 0 1 2.46 11.91 29.44 29.44 0 0 1-3 13.43 30.7 30.7 0 0 1-8.31 10.26 38.84 38.84 0 0 1-12.42 6.56 49.34 49.34 0 0 1-15.35 2.32A43.51 43.51 0 0 1 452.6 142a58.4 58.4 0 0 1-13.93-7.42 35.77 35.77 0 0 1-4.54-3.85q-1.85-1.89-2.93-3l-.2-.2a.36.36 0 0 0-.13-.17.49.49 0 0 1-.13-.1.4.4 0 0 0-.13-.17.46.46 0 0 1-.13-.1 4.73 4.73 0 0 1-1.55-2.7 3.83 3.83 0 0 1 1.55-2.57l11.64-11.1a4.38 4.38 0 0 1 2.29-1 2.5 2.5 0 0 1 1.28.4 12.7 12.7 0 0 1 1.59 1.12z" fill="#fff"/></svg>